<svg xmlns="http://www.w3.org/2000/svg" height="40" viewBox="0 -960 960 960" width="40"><path d="M265.181-113.304q-31.559 0-53.736-22.13-22.177-22.13-22.177-53.624v-548.79h-7.334q-16 0-26.938-10.972-10.938-10.972-10.938-27.022 0-16.05 10.938-26.905t26.938-10.855h165.522q0-16.166 10.939-27.101 10.938-10.935 26.938-10.935h189.015q16 0 26.939 11.028 10.938 11.028 10.938 27.008h165.841q16 0 26.938 10.972 10.938 10.972 10.938 27.022 0 16.05-10.938 26.905t-26.938 10.855h-7.334v548.79q0 31.494-22.177 53.624-22.177 22.13-53.736 22.13H265.181Zm429.638-624.544H265.181v548.79h429.638v-548.79ZM361.16-270.906h71.209v-386H361.16v386Zm166.471 0H599v-386h-71.369v386Zm-262.45-466.942v548.79-548.79Z"/></svg>