<svg xmlns="http://www.w3.org/2000/svg" height="40" viewBox="0 -960 960 960" width="40"><path d="M886.855-661.327H306.659q-61.297 0-109.449 33.181t-48.152 89.732v310.393l83.384-311.582q7.036-24.79 27.688-39.924t45.841-15.134h539.203q37.544 0 60.54 30.113 22.996 30.112 12.322 66.655l-76.29 282.886q-9.058 31.601-30.438 46.652-21.38 15.051-53.967 15.051H149.058q-30.319 0-53.036-22.718-22.718-22.717-22.718-53.036v-501.884q0-30.558 22.718-53.236 22.717-22.677 53.036-22.677h230.58q15.007 0 29.221 6.09 14.214 6.091 24.569 16.446l47.239 47.239h330.275q30.558 0 53.236 22.717 22.677 22.717 22.677 53.036Z"/></svg>