<?xml version="1.0" encoding="UTF-8"?>
<svg id="Ebene_1" data-name="Ebene 1" xmlns="http://www.w3.org/2000/svg" xmlns:xlink="http://www.w3.org/1999/xlink" viewBox="0 0 33.91 33.88">
  <defs>
    <style>
      .cls-1 {
        fill: url(#Unbenannter_Verlauf_8);
      }

      .cls-1, .cls-2 {
        stroke-width: 0px;
      }

      .cls-2 {
        fill: url(#Unbenannter_Verlauf_8-2);
      }
    </style>
    <linearGradient id="Unbenannter_Verlauf_8" data-name="Unbenannter Verlauf 8" x1="2.6" y1="2.57" x2="29.7" y2="29.67" gradientUnits="userSpaceOnUse">
      <stop offset="0" stop-color="#0074bc"/>
      <stop offset=".33" stop-color="#2c57a7"/>
      <stop offset="1" stop-color="#852080"/>
    </linearGradient>
    <linearGradient id="Unbenannter_Verlauf_8-2" data-name="Unbenannter Verlauf 8" x1="14.14" y1="17.19" x2="23.14" y2="26.19" xlink:href="#Unbenannter_Verlauf_8"/>
  </defs>
  <path class="cls-1" d="M8.61,30.72V11.74c0-.88.31-1.63.92-2.24.62-.61,1.36-.92,2.24-.92h18.98c.88,0,1.62.31,2.24.92.62.62.92,1.36.92,2.24v13.71l-8.43,8.42h-13.71c-.87,0-1.62-.31-2.23-.92-.61-.61-.92-1.36-.92-2.23ZM.06,7.01c-.16-.87,0-1.66.51-2.35.5-.69,1.19-1.12,2.06-1.29L21.33.06c.87-.16,1.66,0,2.35.49.7.49,1.13,1.18,1.29,2.05l.56,3.2h-3.09l-.49-2.73L3.1,6.39l2.74,15.55v6.27c-.61-.13-1.14-.41-1.59-.85-.45-.44-.73-.99-.85-1.64L.06,7.01ZM11.69,11.66v19.15h12.24v-5.33c0-.44.15-.82.46-1.12.3-.3.68-.46,1.12-.46h5.33v-12.24H11.69Z"/>
  <path class="cls-2" d="M15.74,19.26l2.95,7.89,2.96-7.95c.15-.42.27-.71.35-.87.08-.16.21-.31.38-.44.18-.13.42-.2.73-.2.22,0,.43.05.63.15.19.1.34.24.45.4.11.17.16.34.16.51,0,.12-.02.25-.05.38-.04.14-.08.27-.13.4-.05.13-.11.27-.16.41l-3.16,7.69c-.11.29-.22.57-.34.84-.11.27-.24.5-.39.7-.15.2-.35.37-.59.49-.25.13-.55.19-.9.19s-.66-.06-.9-.19c-.25-.12-.44-.29-.6-.5-.15-.21-.28-.44-.4-.7-.11-.26-.23-.54-.34-.83l-3.1-7.63c-.05-.14-.11-.28-.16-.41-.06-.13-.1-.28-.14-.43-.04-.15-.06-.29-.06-.39,0-.27.12-.52.36-.75.24-.22.55-.34.92-.34.45,0,.77.12.96.37.19.25.38.65.57,1.19Z"/>
</svg>